<?xml version="1.0" standalone="no"?>
<!DOCTYPE svg PUBLIC "-//W3C//DTD SVG 20010904//EN"
 "http://www.w3.org/TR/2001/REC-SVG-20010904/DTD/svg10.dtd">
<svg version="1.0" xmlns="http://www.w3.org/2000/svg"
 width="512.000000pt" height="512.000000pt" viewBox="0 0 512.000000 512.000000"
 preserveAspectRatio="xMidYMid meet">
<g transform="translate(0.000000,512.000000) scale(0.100000,-0.100000)"
fill="#000000" stroke="none">
<path d="M713 4944 c-52 -19 -128 -98 -142 -150 -7 -26 -11 -217 -11 -555 0
-590 -2 -577 79 -652 27 -25 66 -50 87 -56 24 -7 148 -11 315 -11 324 0 344 4
412 80 57 64 67 101 67 264 l0 136 211 0 c210 0 211 0 230 -24 33 -42 78 -56
183 -56 l96 0 0 -96 c0 -105 14 -150 56 -183 l24 -19 0 -902 0 -902 -24 -19
c-46 -36 -56 -76 -56 -227 l0 -140 -38 -23 c-20 -13 -75 -60 -122 -104 -97
-93 -130 -114 -226 -151 -58 -23 -90 -28 -201 -32 l-133 -5 0 140 c0 166 -11
208 -72 270 -67 69 -91 73 -407 73 -170 0 -291 -4 -316 -11 -54 -15 -139 -100
-154 -154 -7 -27 -11 -210 -11 -556 0 -591 -2 -579 80 -652 26 -24 66 -49 88
-55 26 -8 131 -12 314 -12 323 0 343 4 411 80 58 64 67 101 67 265 l0 138 133
-6 c204 -8 277 -40 439 -193 148 -140 294 -204 468 -204 174 0 320 64 467 203
162 153 237 186 441 194 l132 6 0 -138 c0 -79 5 -155 12 -179 16 -55 99 -138
154 -154 28 -8 130 -12 316 -12 323 0 343 4 411 80 24 26 49 66 55 88 9 28 12
185 12 554 0 589 2 576 -79 651 -27 25 -66 50 -87 56 -24 7 -148 11 -315 11
-316 0 -340 -4 -407 -73 -61 -62 -72 -104 -72 -270 l0 -140 -132 6 c-202 7
-280 41 -435 189 -50 48 -106 94 -122 103 l-31 16 0 140 c0 152 -10 192 -56
228 l-24 19 0 902 0 902 24 19 c42 33 56 78 56 183 l0 96 96 0 c105 0 150 14
183 56 19 24 20 24 230 24 l211 0 0 -138 c0 -171 12 -212 79 -275 27 -25 66
-50 87 -56 52 -15 576 -15 628 0 21 6 60 31 87 56 81 75 79 62 79 653 0 583 1
576 -73 648 -70 68 -91 72 -407 72 -316 0 -337 -4 -407 -72 -61 -60 -73 -104
-73 -270 l0 -138 -211 0 -211 0 -21 26 c-42 54 -45 54 -597 54 -552 0 -555 0
-597 -54 l-21 -26 -211 0 -211 0 0 138 c0 166 -12 210 -73 270 -70 69 -91 72
-411 71 -221 0 -290 -4 -323 -15z m622 -169 c21 -20 25 -34 25 -80 l0 -55 -55
0 c-46 0 -60 -4 -80 -25 -30 -29 -33 -73 -6 -106 14 -18 31 -23 80 -27 l61 -4
0 -78 0 -78 -61 -4 c-70 -5 -99 -28 -99 -78 0 -50 29 -73 99 -78 l61 -4 0 -78
0 -78 -61 -4 c-70 -5 -99 -28 -99 -78 0 -50 29 -73 99 -78 l61 -4 0 -55 c0
-44 -5 -58 -25 -78 l-24 -25 -271 0 -271 0 -24 25 c-21 20 -25 34 -25 80 l0
55 55 0 c67 0 105 29 105 80 0 51 -38 80 -105 80 l-55 0 0 80 0 80 55 0 c67 0
105 29 105 80 0 51 -38 80 -105 80 l-55 0 0 80 0 80 55 0 c67 0 105 29 105 80
0 51 -38 80 -105 80 l-55 0 0 55 c0 46 4 60 25 80 l24 25 271 0 271 0 24 -25z
m3040 0 c21 -20 25 -34 25 -80 l0 -55 -55 0 c-67 0 -105 -29 -105 -80 0 -51
38 -80 105 -80 l55 0 0 -80 0 -80 -55 0 c-67 0 -105 -29 -105 -80 0 -51 38
-80 105 -80 l55 0 0 -80 0 -80 -55 0 c-67 0 -105 -29 -105 -80 0 -51 38 -80
105 -80 l55 0 0 -55 c0 -46 -4 -60 -25 -80 l-24 -25 -271 0 -271 0 -24 25
c-20 20 -25 34 -25 78 l0 55 61 4 c49 4 66 9 80 27 27 33 24 77 -6 106 -20 21
-34 25 -80 25 l-55 0 0 79 0 79 61 4 c70 5 99 28 99 78 0 50 -29 73 -99 78
l-61 4 0 78 0 78 61 4 c49 4 66 9 80 27 27 33 24 77 -6 106 -20 21 -34 25 -80
25 l-55 0 0 55 c0 46 4 60 25 80 l24 25 271 0 271 0 24 -25z m-1335 -535 l0
-160 -480 0 -480 0 0 160 0 160 480 0 480 0 0 -160z m-1120 0 l0 -80 -200 0
-200 0 0 80 0 80 200 0 200 0 0 -80z m1680 0 l0 -80 -200 0 -200 0 0 80 0 80
200 0 200 0 0 -80z m-880 -400 l0 -80 -160 0 -160 0 0 80 0 80 160 0 160 0 0
-80z m-80 -1120 l0 -880 -80 0 -80 0 0 880 0 880 80 0 80 0 0 -880z m80 -1129
l0 -90 -37 7 c-21 4 -76 7 -123 7 -47 0 -102 -3 -122 -7 l-38 -7 0 90 0 89
160 0 160 0 0 -89z m-1385 -176 c21 -20 25 -34 25 -80 l0 -55 -55 0 c-46 0
-60 -4 -80 -25 -30 -29 -33 -73 -6 -106 14 -18 31 -23 80 -27 l61 -4 0 -78 0
-78 -61 -4 c-70 -5 -99 -28 -99 -78 0 -50 29 -73 99 -78 l61 -4 0 -78 0 -78
-61 -4 c-70 -5 -99 -28 -99 -78 0 -50 29 -73 99 -78 l61 -4 0 -55 c0 -44 -5
-58 -25 -78 l-24 -25 -271 0 -271 0 -24 25 c-21 20 -25 34 -25 80 l0 55 55 0
c67 0 105 29 105 80 0 51 -38 80 -105 80 l-55 0 0 80 0 80 55 0 c67 0 105 29
105 80 0 51 -38 80 -105 80 l-55 0 0 80 0 80 55 0 c67 0 105 29 105 80 0 51
-38 80 -105 80 l-55 0 0 55 c0 46 4 60 25 80 l24 25 271 0 271 0 24 -25z
m3040 0 c21 -20 25 -34 25 -80 l0 -55 -55 0 c-67 0 -105 -29 -105 -80 0 -51
38 -80 105 -80 l55 0 0 -80 0 -80 -55 0 c-67 0 -105 -29 -105 -80 0 -51 38
-80 105 -80 l55 0 0 -80 0 -80 -55 0 c-67 0 -105 -29 -105 -80 0 -51 38 -80
105 -80 l55 0 0 -55 c0 -46 -4 -60 -25 -80 l-24 -25 -271 0 -271 0 -24 25
c-20 20 -25 34 -25 78 l0 55 61 4 c70 5 99 28 99 78 0 50 -29 73 -99 78 l-61
4 0 78 0 78 61 4 c70 5 99 28 99 78 0 50 -29 73 -99 78 l-61 4 0 78 0 78 61 4
c49 4 66 9 80 27 27 33 24 77 -6 106 -20 21 -34 25 -80 25 l-55 0 0 55 c0 46
4 60 25 80 l24 25 271 0 271 0 24 -25z m-1706 -70 c93 -22 167 -66 252 -149
88 -85 145 -126 234 -167 100 -47 159 -60 308 -66 l137 -6 0 -77 0 -77 -137
-6 c-149 -6 -208 -19 -308 -66 -88 -41 -142 -80 -240 -171 -118 -112 -226
-160 -355 -160 -129 0 -237 48 -355 160 -186 175 -306 227 -547 237 l-138 6 0
77 0 77 138 6 c239 10 362 63 547 237 90 85 153 123 243 144 76 19 143 19 221
1z"/>
<path d="M2463 1182 c-109 -39 -178 -112 -210 -221 -41 -144 35 -304 176 -370
45 -21 71 -26 131 -26 129 0 234 67 289 184 54 115 27 264 -64 356 -82 81
-219 114 -322 77z m160 -156 c103 -43 128 -177 48 -257 -65 -65 -157 -65 -222
0 -124 123 13 325 174 257z"/>
</g>
</svg>
