<?xml version="1.0" standalone="no"?>
<!DOCTYPE svg PUBLIC "-//W3C//DTD SVG 20010904//EN"
 "http://www.w3.org/TR/2001/REC-SVG-20010904/DTD/svg10.dtd">
<svg version="1.0" xmlns="http://www.w3.org/2000/svg"
 width="512.000000pt" height="512.000000pt" viewBox="0 0 512.000000 512.000000"
 preserveAspectRatio="xMidYMid meet">
<g transform="translate(0.000000,512.000000) scale(0.100000,-0.100000)"
fill="#000000" stroke="none">
<path d="M1163 4735 c-23 -7 -62 -24 -85 -38 -54 -32 -238 -218 -238 -241 0
-25 27 -73 45 -80 43 -16 63 -5 146 80 96 98 146 131 211 140 65 9 109 -9 221
-89 l99 -70 -619 -619 c-340 -340 -622 -618 -628 -618 -16 1 -135 168 -151
212 -8 22 -14 57 -14 77 0 80 34 122 339 426 260 259 291 293 291 322 0 37
-38 73 -79 73 -38 0 -628 -593 -660 -664 -49 -108 -48 -228 2 -326 26 -51 343
-486 391 -537 49 -53 77 -45 166 50 l59 62 45 -45 46 -44 -44 -46 c-167 -173
-246 -364 -246 -595 0 -237 83 -433 255 -600 102 -99 263 -189 377 -210 35 -7
38 -10 53 -63 49 -167 180 -326 328 -396 l78 -38 -2 -156 c-2 -183 9 -221 74
-277 89 -76 211 -73 295 8 19 18 40 44 48 60 13 24 20 27 67 27 50 0 53 -2 72
-37 80 -146 301 -147 380 0 19 36 22 37 76 37 53 0 57 -2 69 -30 27 -65 116
-120 194 -120 76 0 170 57 196 120 12 28 16 30 66 30 48 0 55 -3 68 -28 21
-41 66 -82 111 -103 104 -48 231 -1 288 104 21 41 22 50 22 366 l0 324 57 13
c69 16 149 55 204 99 33 28 56 36 134 49 140 25 323 106 350 156 17 31 11 65
-13 88 -32 30 -59 28 -130 -12 -64 -35 -167 -79 -173 -73 -2 1 6 31 16 66 11
34 20 73 20 84 0 16 14 29 55 51 73 38 175 147 213 228 42 88 55 160 50 264
-8 140 -61 259 -159 354 l-40 39 47 50 c27 28 53 51 60 51 18 0 115 -110 152
-173 61 -101 85 -188 90 -322 5 -147 -9 -212 -73 -340 -58 -116 -58 -142 -4
-171 25 -12 33 -13 62 0 28 11 42 29 80 107 62 125 87 233 87 374 0 225 -75
413 -232 581 l-57 61 45 44 44 44 69 -73 c72 -75 104 -88 142 -59 24 19 380
506 406 557 33 64 47 154 34 222 -22 121 -22 120 -545 646 -568 570 -551 557
-711 557 -76 0 -99 -4 -145 -26 -55 -26 -554 -386 -577 -417 -30 -38 -16 -73
55 -143 l69 -67 -256 -256 -256 -256 -185 0 -185 0 -255 255 -254 254 67 70
c73 75 84 109 50 149 -17 18 -474 356 -534 394 -70 44 -202 60 -286 33z m2784
-162 c20 -9 238 -217 506 -482 499 -495 517 -516 516 -606 0 -22 -6 -56 -12
-75 -15 -40 -137 -209 -152 -210 -13 0 -1235 1222 -1235 1235 1 9 23 27 131
104 89 63 164 73 246 34z m-2188 -373 c-78 -90 -1244 -1250 -1256 -1250 -13 0
-93 104 -93 121 0 6 286 297 636 645 l635 634 63 -48 63 -47 -48 -55z m2321
-489 c347 -347 630 -635 630 -640 0 -12 -82 -130 -90 -130 -11 -1 -1300 1296
-1300 1307 0 13 100 91 118 91 7 1 296 -282 642 -628z m-2078 32 l238 -238
-497 -497 -498 -498 -237 237 c-131 131 -238 243 -238 248 0 6 25 35 55 65
l55 55 123 -122 c67 -66 138 -129 157 -139 41 -20 135 -22 171 -4 109 57 157
158 125 264 -13 42 -35 69 -143 178 l-128 128 73 72 72 73 122 -122 c68 -66
139 -129 158 -139 48 -24 135 -22 186 4 97 50 140 152 109 259 -15 52 -28 68
-143 180 l-126 123 54 55 c30 30 59 55 65 55 5 0 117 -107 247 -237z m1428
182 l55 -56 -122 -117 c-67 -64 -129 -133 -139 -152 -36 -73 -18 -185 40 -248
55 -62 173 -84 246 -48 19 10 90 73 158 139 l122 122 72 -73 73 -72 -128 -128
c-108 -109 -130 -136 -143 -178 -32 -106 16 -207 125 -264 36 -18 130 -16 171
4 19 10 90 73 157 139 l123 122 55 -55 c30 -30 55 -59 55 -65 0 -5 -107 -117
-237 -247 l-238 -238 -497 497 -498 498 237 237 c131 131 243 238 248 238 6 0
35 -25 65 -55z m-1772 -278 c123 -125 133 -147 87 -192 -45 -46 -64 -36 -222
119 -46 44 -83 85 -83 90 0 14 82 96 95 96 6 0 61 -51 123 -113z m1980 70 c23
-23 42 -47 42 -53 0 -6 -42 -51 -92 -100 -150 -146 -168 -155 -213 -109 -46
45 -36 67 87 192 62 62 117 113 123 113 6 0 30 -19 53 -43z m-371 -809 l523
-523 -27 -82 c-15 -46 -30 -83 -34 -83 -4 0 -58 38 -121 84 -535 390 -844 609
-885 628 -41 19 -66 23 -163 23 -111 0 -118 -1 -183 -33 -70 -35 -169 -127
-773 -724 l-160 -159 -57 173 -57 173 523 523 522 522 185 0 185 0 522 -522z
m-2065 295 c60 -61 110 -120 113 -135 13 -50 -33 -96 -83 -83 -27 7 -242 210
-242 229 0 14 81 96 95 96 6 0 58 -48 117 -107z m2886 64 c23 -23 42 -47 42
-53 0 -19 -215 -222 -242 -229 -50 -13 -96 33 -83 83 7 28 211 242 230 242 6
0 30 -19 53 -43z m-1418 -478 c206 -93 215 -386 16 -492 -59 -31 -193 -31
-252 0 -126 67 -181 230 -120 358 47 99 135 155 246 155 44 0 80 -7 110 -21z
m-1755 -149 l49 -50 -43 -42 c-104 -102 -152 -211 -159 -359 -3 -81 0 -110 19
-174 49 -167 181 -301 352 -359 13 -4 16 -12 12 -26 -3 -10 -10 -42 -14 -70
-4 -28 -10 -53 -13 -56 -9 -8 -110 33 -170 70 -124 74 -211 170 -274 300 -95
197 -84 456 28 643 37 63 134 173 152 173 6 0 34 -22 61 -50z m2296 -231 c102
-74 187 -138 190 -144 2 -5 -14 -13 -35 -17 -22 -5 -73 -24 -113 -44 -67 -32
-105 -66 -459 -412 -212 -207 -388 -378 -392 -379 -4 -2 -8 31 -9 73 -2 102
-17 163 -65 263 -32 67 -56 101 -117 160 -117 117 -248 177 -415 190 l-78 6
210 202 210 203 6 -43 c15 -98 92 -216 181 -277 115 -79 280 -92 407 -33 140
66 235 199 246 343 5 69 5 70 26 57 11 -8 105 -74 207 -148z m-2080 12 c54
-59 55 -63 123 -275 l69 -215 -35 -39 c-19 -21 -43 -53 -54 -70 -22 -38 -33
-39 -101 -7 -196 91 -282 330 -187 522 26 55 101 143 121 143 5 0 34 -27 64
-59z m2974 15 c116 -121 142 -321 61 -461 -25 -42 -112 -135 -127 -135 -4 0
-17 28 -28 63 -22 66 -67 139 -120 196 l-32 34 41 121 c36 109 45 125 92 173
29 29 57 53 62 53 5 0 28 -20 51 -44z m-440 -354 c119 -56 203 -167 226 -300
29 -165 -69 -345 -229 -420 -50 -24 -69 -27 -162 -27 -94 0 -111 3 -165 28
-113 53 -198 163 -225 290 -39 191 91 396 287 453 78 22 190 12 268 -24z
m-1763 -152 c248 -76 397 -339 333 -585 -65 -249 -314 -412 -555 -363 -109 23
-184 62 -261 138 -201 199 -196 512 11 703 52 48 166 110 220 120 68 12 191 6
252 -13z m1078 -360 c17 -62 51 -127 99 -188 23 -28 41 -54 41 -57 0 -3 -134
-5 -297 -5 l-298 1 215 211 215 212 6 -65 c3 -35 12 -84 19 -109z m-380 -645
l0 -255 -40 0 -40 0 0 255 0 255 40 0 40 0 0 -255z m300 -50 l0 -306 -25 -24
c-30 -31 -71 -32 -102 -3 l-23 21 0 309 0 308 75 0 75 0 0 -305z m230 50 l0
-255 -42 0 -43 0 -4 255 -3 255 46 0 46 0 0 -255z m300 -34 c0 -184 -4 -299
-11 -320 -19 -54 -75 -68 -116 -29 l-23 21 0 309 0 308 75 0 75 0 0 -289z
m-1082 -348 c-29 -31 -72 -30 -103 2 l-25 24 0 228 0 228 73 73 72 73 3 -302
c2 -299 2 -303 -20 -326z m-269 244 c-1 -62 -3 -114 -4 -117 -2 -3 -22 -4 -44
-2 l-41 4 0 99 0 99 38 19 c20 10 41 17 45 14 4 -3 7 -55 6 -116z m-239 -89
c0 -121 -2 -134 -22 -155 -26 -28 -67 -30 -99 -4 -23 18 -24 26 -27 155 l-4
136 76 0 76 0 0 -132z"/>
<path d="M3444 1939 c-51 -12 -118 -68 -145 -122 -32 -61 -24 -161 16 -219 45
-64 121 -101 201 -96 117 7 195 88 202 209 4 59 1 74 -23 118 -32 58 -81 96
-145 110 -51 12 -51 12 -106 0z m111 -164 c27 -26 32 -70 12 -96 -15 -20 -51
-39 -72 -39 -26 0 -75 55 -75 85 0 36 41 75 80 75 19 0 40 -9 55 -25z"/>
<path d="M1687 1676 c-57 -21 -103 -61 -127 -111 -33 -68 -26 -168 15 -227 39
-55 119 -98 186 -98 64 0 145 43 184 99 27 39 30 50 30 124 0 74 -3 86 -29
125 -55 82 -171 121 -259 88z m132 -162 c27 -35 26 -66 -2 -100 -17 -20 -33
-27 -57 -27 -24 0 -40 7 -57 27 -28 34 -29 65 -2 100 16 20 29 26 59 26 30 0
43 -6 59 -26z"/>
</g>
</svg>
