<?xml version="1.0" standalone="no"?>
<!DOCTYPE svg PUBLIC "-//W3C//DTD SVG 20010904//EN"
 "http://www.w3.org/TR/2001/REC-SVG-20010904/DTD/svg10.dtd">
<svg version="1.0" xmlns="http://www.w3.org/2000/svg"
 width="512.000000pt" height="512.000000pt" viewBox="0 0 512.000000 512.000000"
 preserveAspectRatio="xMidYMid meet">
<g transform="translate(0.000000,512.000000) scale(0.100000,-0.100000)"
fill="#000000" stroke="none">
<path d="M1557 4309 c-97 -23 -213 -112 -255 -195 -10 -22 -68 -165 -127 -319
-59 -154 -109 -282 -111 -284 -2 -2 -19 4 -39 13 -53 25 -184 37 -335 30 -152
-8 -188 -20 -238 -79 -74 -91 -68 -202 17 -286 59 -60 93 -69 266 -69 l140 -1
-55 -50 c-30 -27 -129 -114 -220 -193 -203 -176 -212 -186 -247 -261 l-28 -60
0 -486 0 -485 38 -76 37 -76 0 -212 c0 -138 4 -227 12 -254 16 -55 99 -138
154 -154 57 -17 571 -17 628 0 55 16 138 99 154 154 7 24 12 100 12 178 l0
136 1200 0 1200 0 0 -137 c0 -76 5 -155 11 -177 6 -21 31 -60 56 -87 70 -75
90 -79 411 -79 180 0 288 4 313 12 55 16 118 73 145 132 23 49 24 61 24 270
l0 218 38 76 37 76 0 486 0 485 -33 68 c-36 72 -38 74 -352 348 l-164 144 159
5 c174 6 186 9 248 69 105 100 75 275 -58 343 -35 18 -59 21 -230 21 -169 1
-197 -1 -250 -20 -33 -12 -60 -21 -61 -20 -1 1 -52 133 -114 292 -142 369
-172 415 -317 483 l-58 27 -985 2 c-553 1 -1001 -3 -1023 -8z m1986 -163 c53
-19 104 -61 126 -104 14 -28 204 -494 338 -829 4 -10 -289 -13 -1446 -13 -798
0 -1451 2 -1451 6 0 3 19 49 41 102 23 53 98 239 166 412 123 310 150 365 199
396 66 44 53 43 1044 43 764 0 952 -2 983 -13z m-2613 -756 c19 -6 43 -17 53
-24 17 -13 17 -17 3 -50 l-15 -36 -193 2 -192 3 -16 27 c-17 32 -8 55 31 75
30 16 278 17 329 3z m3604 -11 c30 -23 33 -45 10 -77 -15 -21 -20 -22 -205
-22 l-190 0 -15 36 c-10 23 -12 40 -6 46 26 26 93 37 233 38 133 0 149 -2 173
-21z m-316 -448 c64 -60 173 -157 242 -216 69 -59 136 -125 150 -148 l25 -42
0 -455 c0 -449 0 -456 -22 -496 -28 -52 -79 -97 -134 -118 -39 -14 -91 -16
-423 -14 l-379 3 -47 139 c-31 95 -53 144 -69 157 -22 18 -59 19 -992 19
l-968 0 -25 -22 c-17 -16 -42 -68 -75 -158 l-48 -135 -379 -3 c-277 -2 -391 1
-424 10 -58 16 -141 96 -158 154 -9 30 -12 163 -12 471 l0 429 25 50 c19 38
57 77 172 176 81 69 191 167 243 217 l95 90 1543 1 1544 0 116 -109z m-737
-1398 c12 -38 24 -74 27 -80 3 -10 -189 -13 -942 -13 -520 0 -946 1 -946 3 0
2 14 40 49 130 l11 27 889 0 889 0 23 -67z m-2841 -242 c25 -6 161 -11 303
-11 l257 0 0 -135 c0 -131 -1 -137 -25 -160 l-24 -25 -271 0 -271 0 -24 25
c-24 23 -25 28 -25 175 0 140 1 151 18 146 9 -3 37 -10 62 -15z m3920 -121 c0
-149 -7 -181 -47 -199 -15 -7 -115 -11 -284 -11 l-260 0 -24 25 c-24 23 -25
29 -25 159 l0 134 283 5 c160 2 295 9 312 15 17 6 33 11 38 11 4 1 7 -62 7
-139z"/>
<path d="M680 2547 c-36 -18 -46 -66 -31 -141 27 -131 106 -231 229 -289 l67
-32 323 -3 322 -3 31 31 c25 25 30 36 24 58 -8 34 -222 359 -249 378 -28 19
-678 21 -716 1z m688 -227 l52 -80 -206 0 c-130 0 -221 4 -246 12 -45 13 -122
77 -144 119 l-15 29 253 0 253 0 53 -80z"/>
<path d="M1685 2535 c-15 -14 -25 -36 -25 -52 0 -35 225 -377 258 -392 15 -8
228 -11 646 -11 598 0 624 1 648 19 13 11 74 95 136 188 121 182 130 206 87
248 l-24 25 -851 0 -851 0 -24 -25z m1529 -162 c-9 -16 -33 -52 -52 -80 l-35
-53 -567 0 -567 0 -35 53 c-19 28 -43 64 -52 80 l-18 27 672 0 672 0 -18 -27z"/>
<path d="M3727 2549 c-22 -13 -257 -364 -257 -384 0 -29 23 -64 50 -75 19 -8
123 -10 341 -8 l314 3 67 32 c124 58 205 165 230 302 13 70 1 112 -38 130 -33
15 -681 15 -707 0z m573 -165 c0 -27 -101 -119 -146 -132 -27 -8 -115 -12
-248 -12 l-206 0 52 80 53 80 248 0 c218 0 247 -2 247 -16z"/>
</g>
</svg>
