<?xml version="1.0" standalone="no"?>
<!DOCTYPE svg PUBLIC "-//W3C//DTD SVG 20010904//EN"
 "http://www.w3.org/TR/2001/REC-SVG-20010904/DTD/svg10.dtd">
<svg version="1.0" xmlns="http://www.w3.org/2000/svg"
 width="512.000000pt" height="512.000000pt" viewBox="0 0 512.000000 512.000000"
 preserveAspectRatio="xMidYMid meet">
<g transform="translate(0.000000,512.000000) scale(0.100000,-0.100000)"
fill="#000000" stroke="none">
<path d="M2395 3953 c-345 -28 -638 -104 -922 -238 l-113 -53 81 -139 c45 -76
111 -190 147 -253 35 -63 66 -117 68 -119 1 -1 56 20 121 47 212 91 431 145
633 158 l100 7 0 299 0 298 -37 -2 c-21 -1 -56 -3 -78 -5z"/>
<path d="M2610 3662 l0 -299 100 -7 c202 -13 421 -67 633 -158 65 -27 120 -48
121 -47 2 2 33 56 68 119 36 63 102 177 146 253 l81 137 -77 39 c-194 97 -448
180 -677 219 -101 18 -315 42 -377 42 -17 0 -18 -21 -18 -298z"/>
<path d="M1148 3532 c-268 -180 -484 -389 -677 -656 -39 -54 -71 -104 -71
-111 0 -7 64 -49 142 -93 79 -44 193 -110 253 -146 108 -64 110 -65 125 -45
160 232 351 422 559 556 50 32 91 62 91 66 0 5 -49 92 -109 195 -59 103 -124
215 -142 249 -19 35 -38 63 -44 63 -5 0 -63 -35 -127 -78z"/>
<path d="M3796 3537 c-22 -39 -86 -152 -143 -249 -57 -98 -103 -181 -103 -186
0 -4 24 -21 53 -39 197 -119 433 -343 571 -546 l39 -57 51 30 c28 17 142 83
254 146 111 64 202 122 202 129 0 16 -90 143 -185 260 -91 112 -282 299 -395
387 -100 77 -279 198 -295 198 -5 0 -28 -33 -49 -73z"/>
<path d="M266 2528 c-153 -311 -236 -638 -261 -1025 l-7 -103 301 0 301 0 0
74 c0 248 85 574 214 822 l43 85 -41 23 c-111 63 -434 251 -453 263 -22 15
-24 12 -97 -139z"/>
<path d="M4519 2528 l-256 -149 44 -83 c128 -248 213 -575 213 -822 l0 -74
300 0 300 0 0 28 c0 65 -22 277 -41 391 -38 243 -109 470 -214 688 -35 73 -69
140 -77 151 -12 17 -29 9 -269 -130z"/>
<path d="M3855 2215 c-126 -63 -450 -222 -718 -354 l-489 -241 -43 10 c-142
32 -281 -85 -280 -235 1 -133 100 -229 235 -229 101 0 186 56 219 145 7 18 16
40 19 46 4 7 304 211 667 454 363 243 662 443 664 445 7 6 -27 74 -36 73 -5 0
-111 -52 -238 -114z"/>
</g>
</svg>
