<?xml version="1.0" standalone="no"?>
<!DOCTYPE svg PUBLIC "-//W3C//DTD SVG 20010904//EN"
 "http://www.w3.org/TR/2001/REC-SVG-20010904/DTD/svg10.dtd">
<svg version="1.0" xmlns="http://www.w3.org/2000/svg"
 width="512.000000pt" height="512.000000pt" viewBox="0 0 512.000000 512.000000"
 preserveAspectRatio="xMidYMid meet">
<g transform="translate(0.000000,512.000000) scale(0.100000,-0.100000)"
fill="#000000" stroke="none">
<path d="M751 4623 c-17 -14 -57 -147 -196 -648 -97 -346 -185 -665 -196 -707
-18 -66 -24 -78 -43 -78 -40 0 -146 -59 -197 -110 -56 -56 -94 -129 -109 -210
-6 -32 -10 -313 -10 -719 0 -723 1 -734 56 -828 l24 -42 0 -376 0 -376 25 -24
24 -25 511 0 511 0 24 25 25 24 0 296 0 295 1360 0 1360 0 0 -295 0 -296 25
-24 24 -25 511 0 511 0 24 25 25 24 0 375 0 374 29 55 c16 31 34 80 41 110 7
37 10 265 8 748 l-3 694 -24 58 c-45 114 -150 210 -260 240 -26 7 -47 20 -52
32 -5 11 -94 328 -199 705 -151 547 -194 689 -211 703 -20 16 -121 17 -1809
17 -1688 0 -1789 -1 -1809 -17z m3524 -195 c8 -29 88 -318 178 -641 l164 -588
-40 3 -40 3 -18 65 c-10 36 -76 277 -148 535 -71 259 -135 489 -141 512 -6 24
-20 52 -32 63 -22 20 -35 20 -1638 20 -1593 0 -1617 0 -1637 -20 -12 -10 -24
-27 -26 -37 -3 -10 -69 -250 -147 -533 -78 -283 -147 -535 -154 -560 -12 -43
-15 -45 -53 -48 l-40 -3 164 588 c90 323 170 612 178 641 l16 52 1699 0 1699
0 16 -52z m-160 -290 c16 -57 81 -291 145 -520 l117 -418 -1814 0 c-1327 0
-1813 3 -1813 11 0 6 42 163 94 348 52 185 116 414 142 509 l48 172 1527 0
1527 0 27 -102z m-3555 -1258 l0 -160 -200 0 -200 0 0 68 c0 78 21 132 71 181
56 57 99 71 222 71 l107 0 0 -160z m480 0 l0 -160 -160 0 -160 0 0 160 0 160
160 0 160 0 0 -160z m2880 -62 c0 -203 -2 -227 -21 -268 -25 -55 -62 -95 -114
-123 l-40 -22 -1173 -3 -1173 -2 -50 21 c-59 26 -121 91 -137 147 -8 25 -12
119 -12 256 l0 216 1360 0 1360 0 0 -222z m480 62 l0 -160 -160 0 -160 0 0
160 0 160 160 0 160 0 0 -160z m415 141 c93 -42 144 -125 145 -233 l0 -68
-200 0 -200 0 0 160 0 160 108 0 c82 0 116 -5 147 -19z m-3765 -475 c0 -7 16
-45 35 -83 43 -86 103 -144 193 -186 l67 -32 1216 0 1215 0 76 38 c105 52 188
149 212 250 l6 27 445 0 445 0 0 -537 c0 -362 -4 -551 -11 -578 -15 -54 -100
-139 -154 -154 -25 -7 -162 -11 -376 -11 l-336 0 -5 73 c-3 46 -13 87 -26 113
-27 52 -90 107 -141 122 -57 17 -2647 17 -2705 0 -26 -8 -60 -31 -92 -63 -55
-55 -74 -104 -74 -194 l0 -51 -337 0 c-216 0 -352 4 -378 11 -54 15 -139 100
-154 154 -7 27 -11 216 -11 578 l0 537 445 0 c369 0 445 -2 445 -14z m315
-1186 l0 -80 -82 0 -83 0 0 55 c0 46 4 60 25 80 20 21 34 25 82 25 l58 0 0
-80z m290 55 c50 -49 15 -135 -55 -135 -19 0 -40 9 -55 25 -16 15 -25 36 -25
55 0 19 9 40 25 55 15 16 36 25 55 25 19 0 40 -9 55 -25z m1630 -55 l0 -80
-725 0 -725 0 0 80 0 80 725 0 725 0 0 -80z m290 55 c50 -49 15 -135 -55 -135
-41 0 -80 39 -80 80 0 41 39 80 80 80 19 0 40 -9 55 -25z m320 0 c21 -20 25
-34 25 -80 l0 -55 -83 0 -82 0 0 80 0 80 58 0 c48 0 62 -4 82 -25z m-3591
-280 c39 -12 117 -15 393 -15 l343 0 0 -240 0 -240 -400 0 -400 0 0 255 c0
140 3 255 8 255 4 0 29 -7 56 -15z m4576 -240 l0 -255 -400 0 -400 0 0 240 0
240 343 0 c261 0 354 4 392 14 28 8 53 15 58 15 4 1 7 -114 7 -254z"/>
<path d="M2505 2695 c-22 -21 -25 -33 -25 -95 0 -62 3 -74 25 -95 15 -16 36
-25 55 -25 19 0 40 9 55 25 22 21 25 33 25 95 0 62 -3 74 -25 95 -15 16 -36
25 -55 25 -19 0 -40 -9 -55 -25z"/>
<path d="M2042 2150 c-35 -15 -42 -50 -42 -230 0 -180 6 -210 47 -229 34 -15
992 -15 1026 0 14 6 30 22 36 36 12 25 16 340 5 381 -14 51 -24 52 -556 51
-271 0 -503 -4 -516 -9z m918 -230 l0 -80 -400 0 -400 0 0 80 0 80 400 0 400
0 0 -80z"/>
</g>
</svg>
